129, 0, 0, 0, 0
~
v 0.038928 -0.046190 -0.142028
v 0.183580 -0.315138 0.000503
v -0.100287 -0.097352 0.086362
v -0.129240 0.012680 -0.068992
v 0.147646 0.128789 -0.022096
v 0.157108 -0.009566 0.100567
v -0.011059 0.049304 0.173603
v -0.059179 0.328192 0.123602
v 0.193149 -0.047889 -0.015856
vn 0.6441 0.3667 0.6713
vn 0.0828 -0.3911 0.9166
vn -0.9008 0.0493 0.4314
vn -0.5734 -0.6523 -0.4957
vn 0.8949 0.0499 -0.4435
vn -0.0951 0.5593 -0.8235
usemtl Red_paint0
f 5//1 8//1 7//1 6//1
f 2//2 6//2 7//2 3//2
f 3//3 7//3 8//3 4//3
usemtl Red_paint1
f 1//4 2//4 3//4 4//4
f 1//5 5//5 6//5 2//5
f 5//6 1//6 4//6 8//6